<svg xmlns="http://www.w3.org/2000/svg" viewBox="0 0 960 500" role="img" aria-labelledby="title desc"><title id="title">Event choreography</title><desc id="desc">Participants react to events and publish their results. The broker transports events but does not necessarily decide business workflow order.</desc><defs><marker id="arrow" viewBox="0 0 10 10" refX="9" refY="5" markerWidth="7" markerHeight="7" orient="auto-start-reverse"><path d="M 0 0 L 10 5 L 0 10 z" fill="#566c7d"/></marker></defs><rect width="960" height="500" fill="white"/><path d="M 199.0 221.0 L 385.0 221.0" fill="none" stroke="#566c7d" stroke-width="2" stroke-dasharray="7 5"/><polygon points="385.0,221.0 373.0,216.0 373.0,226.0" fill="#566c7d"/><path d="M 544.0 190.0 L 750.0 107.0" fill="none" stroke="#566c7d" stroke-width="2" stroke-dasharray="7 5"/><polygon points="750.0,107.0 737.0,106.8 740.8,116.1" fill="#566c7d"/><path d="M 827.0 107.0 L 827.0 110.0 L 467.0 110.0 L 467.0 190.0" fill="none" stroke="#566c7d" stroke-width="2" stroke-dasharray="7 5"/><polygon points="467.0,190.0 472.0,178.0 462.0,178.0" fill="#566c7d"/><path d="M 539.0 252.0 L 755.0 345.0" fill="none" stroke="#566c7d" stroke-width="2" stroke-dasharray="7 5"/><polygon points="755.0,345.0 746.0,335.7 742.0,344.8" fill="#566c7d"/><path d="M 827.0 407.0 L 827.0 450.0 L 467.0 450.0 L 467.0 252.0" fill="none" stroke="#566c7d" stroke-width="2" stroke-dasharray="7 5"/><polygon points="467.0,252.0 462.0,264.0 472.0,264.0" fill="#566c7d"/><rect x="35" y="190" width="164" height="62" rx="8" fill="#e4f4ee" stroke="#257c64" stroke-width="2"/><text x="117.0" y="227.0" text-anchor="middle" font-family="Arial,sans-serif" font-size="16" font-weight="600" fill="#223c4d">Order service</text><rect x="385" y="190" width="164" height="62" rx="8" fill="#e6eff9" stroke="#3c6d9c" stroke-width="2"/><text x="467.0" y="227.0" text-anchor="middle" font-family="Arial,sans-serif" font-size="16" font-weight="600" fill="#223c4d">Event broker</text><rect x="745" y="45" width="164" height="62" rx="8" fill="#e4f4ee" stroke="#257c64" stroke-width="2"/><text x="827.0" y="72.0" text-anchor="middle" font-family="Arial,sans-serif" font-size="16" font-weight="600" fill="#223c4d">Inventory</text><text x="827.0" y="92.0" text-anchor="middle" font-family="Arial,sans-serif" font-size="16" font-weight="600" fill="#223c4d">service</text><rect x="745" y="345" width="164" height="62" rx="8" fill="#e4f4ee" stroke="#257c64" stroke-width="2"/><text x="827.0" y="382.0" text-anchor="middle" font-family="Arial,sans-serif" font-size="16" font-weight="600" fill="#223c4d">Payment service</text><rect x="239.2" y="197.0" width="105.6" height="22" rx="4" fill="white" opacity=".96"/><text x="292.0" y="212.0" text-anchor="middle" font-family="Arial,sans-serif" font-size="14" fill="#42596a">Order created</text><rect x="594.2" y="124.5" width="105.6" height="22" rx="4" fill="white" opacity=".96"/><text x="647.0" y="139.5" text-anchor="middle" font-family="Arial,sans-serif" font-size="14" fill="#42596a">Order created</text><rect x="579.8" y="86.0" width="134.4" height="22" rx="4" fill="white" opacity=".96"/><text x="647.0" y="101.0" text-anchor="middle" font-family="Arial,sans-serif" font-size="14" fill="#42596a">Reserved / Failed</text><rect x="612.2" y="274.5" width="69.6" height="22" rx="4" fill="white" opacity=".96"/><text x="647.0" y="289.5" text-anchor="middle" font-family="Arial,sans-serif" font-size="14" fill="#42596a">Reserved</text><rect x="594.2" y="426.0" width="105.6" height="22" rx="4" fill="white" opacity=".96"/><text x="647.0" y="441.0" text-anchor="middle" font-family="Arial,sans-serif" font-size="14" fill="#42596a">Paid / Failed</text></svg>