<svg xmlns="http://www.w3.org/2000/svg" viewBox="0 0 960 500" role="img" aria-labelledby="title desc"><title id="title">Service-oriented architecture</title><desc id="desc">Agreed service interfaces connect business capabilities and heterogeneous legacy systems. This example uses an enterprise service bus for routing/translation.</desc><defs><marker id="arrow" viewBox="0 0 10 10" refX="9" refY="5" markerWidth="7" markerHeight="7" orient="auto-start-reverse"><path d="M 0 0 L 10 5 L 0 10 z" fill="#566c7d"/></marker></defs><rect width="960" height="500" fill="white"/><path d="M 343.6 97.0 L 448.4 200.0" fill="none" stroke="#566c7d" stroke-width="2"/><polygon points="448.4,200.0 443.4,188.0 436.4,195.2" fill="#566c7d"/><path d="M 619.7 97.0 L 512.3 200.0" fill="none" stroke="#566c7d" stroke-width="2"/><polygon points="512.3,200.0 524.4,195.3 517.5,188.1" fill="#566c7d"/><path d="M 419.3 262.0 L 217.7 365.0" fill="none" stroke="#566c7d" stroke-width="2"/><polygon points="217.7,365.0 230.6,364.0 226.1,355.1" fill="#566c7d"/><path d="M 479.4 262.0 L 477.6 365.0" fill="none" stroke="#566c7d" stroke-width="2"/><polygon points="477.6,365.0 482.8,353.1 472.8,352.9" fill="#566c7d"/><path d="M 539.6 262.0 L 737.4 365.0" fill="none" stroke="#566c7d" stroke-width="2"/><polygon points="737.4,365.0 729.1,355.0 724.5,363.9" fill="#566c7d"/><rect x="230" y="35" width="164" height="62" rx="8" fill="#eeeafd" stroke="#6751a6" stroke-width="2"/><text x="312.0" y="72.0" text-anchor="middle" font-family="Arial,sans-serif" font-size="16" font-weight="600" fill="#223c4d">Portal consumer</text><rect x="570" y="35" width="164" height="62" rx="8" fill="#eeeafd" stroke="#6751a6" stroke-width="2"/><text x="652.0" y="62.0" text-anchor="middle" font-family="Arial,sans-serif" font-size="16" font-weight="600" fill="#223c4d">Other</text><text x="652.0" y="82.0" text-anchor="middle" font-family="Arial,sans-serif" font-size="16" font-weight="600" fill="#223c4d">application</text><rect x="260" y="200" width="440" height="62" rx="8" fill="#e6eff9" stroke="#3c6d9c" stroke-width="2"/><text x="480.0" y="227.0" text-anchor="middle" font-family="Arial,sans-serif" font-size="16" font-weight="600" fill="#223c4d">Enterprise service bus</text><text x="480.0" y="247.0" text-anchor="middle" font-family="Arial,sans-serif" font-size="16" font-weight="600" fill="#223c4d">Routing and translation</text><rect x="75" y="365" width="164" height="62" rx="8" fill="#e4f4ee" stroke="#257c64" stroke-width="2"/><text x="157.0" y="402.0" text-anchor="middle" font-family="Arial,sans-serif" font-size="16" font-weight="600" fill="#223c4d">Billing service</text><rect x="395" y="365" width="164" height="62" rx="8" fill="#e4f4ee" stroke="#257c64" stroke-width="2"/><text x="477.0" y="402.0" text-anchor="middle" font-family="Arial,sans-serif" font-size="16" font-weight="600" fill="#223c4d">Identity service</text><rect x="715" y="365" width="164" height="62" rx="8" fill="#e4f4ee" stroke="#257c64" stroke-width="2"/><text x="797.0" y="392.0" text-anchor="middle" font-family="Arial,sans-serif" font-size="16" font-weight="600" fill="#223c4d">Legacy finance</text><text x="797.0" y="412.0" text-anchor="middle" font-family="Arial,sans-serif" font-size="16" font-weight="600" fill="#223c4d">service</text><rect x="336.0" y="124.5" width="120.0" height="22" rx="4" fill="white" opacity=".96"/><text x="396.0" y="139.5" text-anchor="middle" font-family="Arial,sans-serif" font-size="14" fill="#42596a">service request</text><rect x="506.0" y="124.5" width="120.0" height="22" rx="4" fill="white" opacity=".96"/><text x="566.0" y="139.5" text-anchor="middle" font-family="Arial,sans-serif" font-size="14" fill="#42596a">service request</text><rect x="283.7" y="289.5" width="69.6" height="22" rx="4" fill="white" opacity=".96"/><text x="318.5" y="304.5" text-anchor="middle" font-family="Arial,sans-serif" font-size="14" fill="#42596a">contract</text><rect x="515.2" y="326.0" width="69.6" height="22" rx="4" fill="white" opacity=".96"/><text x="550.0" y="341.0" text-anchor="middle" font-family="Arial,sans-serif" font-size="14" fill="#42596a">contract</text><rect x="549.7" y="289.5" width="177.6" height="22" rx="4" fill="white" opacity=".96"/><text x="638.5" y="304.5" text-anchor="middle" font-family="Arial,sans-serif" font-size="14" fill="#42596a">formal service contract</text></svg>